<svg id="Capa_1" data-name="Capa 1" xmlns="http://www.w3.org/2000/svg" viewBox="0 0 306.33 183.66"><defs><style>.cls-1{fill:#000;}</style></defs><title>Blanco-03</title><path class="cls-1" d="M301.32,44.27c26.68,61.56,8.33,122.47-63.64,132.49-58.7,9.5-120.39,13.8-178.7-.65C-4.67,161.67-.63,106.22,20.71,57,40.63,19.41,89,13.95,127,8.22,182.88,5.88,270.6-17.94,301.32,44.27h0ZM109.22,63A101.19,101.19,0,0,1,116,46.87c-16.66,2-44.77,1.69-50.11,21.47-3.51,21.73-7.68,53.88,17,64.16,37.74,13.41,123.12,9,160.34-6.12,20.56-10.28,18.61-38.91,12.88-57.79C250.82,50.78,230.64,45.7,214,46.22c14.06,27.59,6.9,66.51-22.52,80.56-43.86,23.56-98.52-13.67-82.25-63.9V63Z" transform="translate(-6.63 -1.81)"/></svg>