<svg id="Capa_1" data-name="Capa 1" xmlns="http://www.w3.org/2000/svg" viewBox="0 0 313.15 471.69" width="50px" fill="#000">
    <title>Blanco-04</title>
    <path class="cls-1"
        d="M246.79,88.76c13.86,37.36,27.22,74.72,48.5,108.37,7.42,12.87,28.95,27.22,18.8,43.3-33.4,39.09-41.32,15.09-29.44,75,2.23,20.54,18.31,49-3.71,63.59-35.63,21-79.18,19.3-119,18.8,1,18.06,8.66,69-15.09,72.74C106.5,473,65.43,471,25.1,468.81,12,467.08,7.53,454,7.78,442.33c-0.49-39.09,2.47-78.19-.74-117-3.46-47-4-94.52-3-141.78,2.23-37.61,0-76.21,10.89-112.58C43.41-19.37,163.66-11,231.2,27.4a7.07,7.07,0,0,1,4,6.68c1,18.8,5.44,36.62,11.13,54.93ZM211.66,135c-28.7,6.93-42.06,44.78-1.48,41.32,16.33-3,31.42-17.32,27.46-34.89-2.47-12.87-16.33-7.67-25.73-6.43h-0.25Z"
        transform="translate(-3.61)" />
</svg>