<svg id="Capa_1" data-name="Capa 1" xmlns="http://www.w3.org/2000/svg" viewBox="0 0 373.23 480.25" width="50px" fill="#000">
    <title>Blanco-02</title>
    <path class="cls-1"
        d="M42.29,303.35a279.28,279.28,0,0,1,48-22.5c4.05-1.42,4.26-1.42,3.65-5.88a143.32,143.32,0,0,1,0-36.09c0.61-4.05.2-4.46-3.85-5.68-15-5.27-67.31-23.72-59.81-44,11.56-19.06,56,11.15,71,17.84,4.05-9.73,7.91-19.26,12.16-29.19C4.58,147.65,36,89.06,125.61,153.53c5.68-10.34,11.15-20.48,17-31.22-107.86-12.16-83.93-70.15,7.1-14,3-5.47,5.88-10.95,8.92-16.62-19.87-9.73-40.14-19.87-56-35.89-6.28-6.08,0-16.83,8.31-14.39,21.9,5.27,40.14,19.26,55.75,35.07,18.85-29,30.61-55.15,59.4-16,13.58-20.68,27.57-42.37,49.27-55.55,12.77-7.3,22.91,3.65,16.62,16.42-11.35,24.33-33.86,40.14-52.71,58.19,6.28,10.34,12.37,20.27,18.85,30.82,20.88-22.71,50.48-63.86,81.91-68.73,45,16-50.89,82.11-69.95,88.8,0.41,2.23,15.81,33.45,18.45,37.3,20.07-21.69,41.76-44.6,70.15-55.35,11.56-4.66,23.11,7.7,14,18.85-19.26,25.75-48.25,41.36-75,58,3,7.91,5.88,15.81,9.12,24.13,16.62-10.34,33-21.69,52.31-26.36,5.68-.81,10.34,1.42,12.77,5.68,9.53,20.88-43.79,38.52-59.4,40.14,2.84,12.37,4.26,24.33,1.22,36.7,22.1,11.35,48.46,22.71,60.62,45.62,3.45,12.57-11.15,15.21-19.67,10.14-19.06-7.91-32.44-23.92-47-37.91-5.27,8.72-10.34,17-15.81,25.75C315.38,324.23,345,329.91,361.81,351c6.08,11.35-7.7,19.06-17.64,16-25.14-4.66-47-18.45-67.51-33.25-6.89,8.92-13.58,17.64-20.88,27,23.32,8.52,49.27,17,64.67,37.91,5.88,10.54-.41,21.9-12.57,22.1-27.37-2-50.48-18.25-72.58-33.45-5.47,5.88-9.73,12.37-15.61,18.65,16,5.88,31.22,12.16,43.79,23.72,7.1,7.1,15.81,14.19,18.45,24.53a12.34,12.34,0,0,1-13.79,15.41c-25.55-7.3-44.2-29.6-61.23-49.06-10.54,9.53-23.32,17-37.71,11.76-12,17.23-21.09,39.94-39.94,50.48-39.74,2,8.11-56.56,18.45-68.32-3.85-6.08-7.7-12-12-18.65-55.55,95.29-107,36.9-13.38-27.37-3.85-9.53-7.5-19.26-11.35-28.79-0.41,0-.81-0.41-1.22-0.41-4.87,15.61-62.24,80.49-65.28,37.51C55.06,351.4,78,332.34,99.06,315.52c3.45-2.64,3.45-2.64,2.43-6.69-1.62-6.28-2.43-11.56-4.66-17.64C74.52,316.13,48.17,341.06,14.72,349a10.43,10.43,0,0,1-10.54-4.66c-8.72-16.83,27-33.65,38.32-41.56ZM215.23,132.64c-3.85-6.08-6.08-12.77-11.35-17.84-22.3,34.06-37.51,71.77-53.12,109.28-12,32,1.22,66.5,9.93,97.72,3.85,12,8.31,23.92,13.18,35.48,3.65,8.52,6.28,9.12,13.18,2.84,29.6-28.59,51.9-64.27,70.76-100.56,14.8-30.41-28.18-96.91-42.78-126.71Z"
        transform="translate(-2.82 -2.58)" />
    <path class="cls-1"
        d="M231,202.59c6.08,15.81,13.38,32.44,5.47,49.06-8.72,19.67-42.37,81.5-61.84,40.35-6.49-19.06-13.38-45.21-7.91-64.88,13.79-35.28,38.32-82.92,64.27-24.33v-0.2Zm-45.82,32.24c-1.22,17-.81,35.48,6.89,51.09,10.34-11.56,17.64-25.14,23.92-39.33,6.28-16-3.45-33.86-12-47.24a144.66,144.66,0,0,0-18.65,35.48h-0.2Z"
        transform="translate(-2.82 -2.58)" />
    <path class="cls-1"
        d="M207.52,225.5c12.77,6.89,9.33,25.14-2.43,31-13,6.89-22.1-10.75-14.6-20.88,4.26-5.27,8.92-13.79,17-10.34v0.2Z"
        transform="translate(-2.82 -2.58)" />
</svg>